<?xml version="1.0" standalone="no"?>
<!DOCTYPE svg PUBLIC "-//W3C//DTD SVG 20010904//EN"
 "http://www.w3.org/TR/2001/REC-SVG-20010904/DTD/svg10.dtd">
<svg version="1.0" xmlns="http://www.w3.org/2000/svg"
 width="800.000000pt" height="800.000000pt" viewBox="0 0 800.000000 800.000000"
 preserveAspectRatio="xMidYMid meet">

<g transform="translate(0.000000,800.000000) scale(0.100000,-0.100000)"
fill="#000000" stroke="none">
<path d="M3780 7343 c-173 -17 -320 -42 -400 -68 -25 -8 -101 -29 -170 -46
-488 -121 -928 -338 -1325 -655 -144 -115 -420 -391 -526 -525 -114 -145 -265
-351 -261 -357 2 -3 0 -8 -6 -11 -44 -29 -207 -357 -287 -576 -206 -568 -255
-1200 -138 -1800 29 -154 96 -387 153 -540 89 -235 277 -590 344 -648 12 -10
14 -15 6 -11 -13 7 -13 6 0 -12 8 -10 26 -31 40 -45 14 -14 39 -45 55 -70 17
-24 37 -53 47 -64 9 -11 44 -54 78 -95 177 -215 451 -461 715 -642 376 -257
809 -439 1255 -527 323 -64 416 -74 645 -68 550 16 1014 127 1470 352 561 277
1001 666 1345 1190 55 83 105 157 113 166 7 8 11 21 9 27 -2 7 3 15 12 18 9 3
13 11 9 17 -3 5 -1 7 5 4 13 -9 -8 -52 -93 -193 -124 -203 -260 -379 -443
-574 -118 -126 -123 -137 -22 -45 231 212 477 541 630 844 63 125 145 317 180
421 40 121 110 414 110 465 1 27 5 70 10 95 71 333 90 717 50 990 -11 74 -27
182 -35 240 -24 165 -97 426 -175 620 -251 631 -653 1138 -1208 1525 -156 109
-513 304 -612 335 -14 4 -34 11 -45 15 -11 4 70 -38 180 -93 601 -301 1079
-744 1409 -1305 32 -53 54 -102 51 -107 -3 -6 -1 -10 4 -10 6 0 11 -6 11 -14
0 -8 6 -17 13 -19 7 -4 8 -6 1 -6 -7 -1 -19 10 -28 24 -9 14 -13 25 -9 25 5 0
3 4 -3 8 -6 4 -34 46 -63 94 -68 114 -195 291 -298 414 -89 108 -307 327 -420
423 -398 337 -898 587 -1428 711 -77 19 -142 35 -145 37 -2 2 1 8 9 12 15 10
-147 36 -314 51 -102 9 -424 11 -505 3z m330 -1225 c19 -13 43 -38 53 -57 l20
-33 -21 13 c-11 7 -19 17 -16 21 3 4 -1 5 -9 2 -9 -3 -25 6 -39 21 -21 22 -28
24 -49 15 -24 -10 -24 -10 3 -5 15 3 30 1 33 -5 4 -7 -137 -10 -420 -10 -296
0 -433 -3 -448 -11 -44 -23 -78 -64 -92 -113 -13 -42 -15 -196 -17 -1005 -1
-526 -5 -891 -8 -811 -4 80 -8 146 -8 148 -1 2 -6 1 -11 -2 -13 -8 -23 56 -18
122 3 37 2 45 -2 22 -4 -19 -5 -106 -3 -192 4 -110 2 -158 -6 -158 -6 0 -13
-17 -15 -37 -2 -22 -4 -6 -5 34 -1 39 3 75 8 78 6 3 10 25 9 48 0 33 -2 38 -9
22 -5 -11 -8 366 -7 887 2 893 2 907 22 922 11 8 24 12 29 9 5 -4 6 -1 2 6 -6
9 -11 9 -22 0 -8 -6 -14 -7 -14 -2 0 17 33 55 63 73 29 18 59 19 497 20 l467
0 33 -22z m-380 -159 l0 -29 -175 0 -175 1 0 30 0 30 175 -1 175 -2 0 -29z
m94 25 c20 -8 21 -38 1 -54 -12 -10 -18 -10 -30 0 -18 15 -20 46 -2 53 6 3 13
6 14 6 1 1 8 -2 17 -5z m802 -172 c21 -16 44 -53 44 -68 0 -4 -9 1 -21 12 -20
18 -41 19 -359 19 -324 0 -339 -1 -360 -20 -51 -45 -50 -32 -50 -835 0 -817
-2 -783 56 -829 26 -20 37 -21 354 -21 316 0 328 1 354 21 14 11 26 18 26 14
0 -16 -32 -66 -49 -75 -13 -6 -152 -10 -378 -10 l-359 0 -26 28 c-15 15 -32
40 -37 55 -8 19 -11 286 -11 822 0 536 3 803 11 822 5 15 22 40 37 56 l26 27
360 0 c327 0 363 -2 382 -18z m-286 -117 l0 -25 -135 0 -135 0 0 25 0 25 135
0 135 0 0 -25z m78 -1 c4 -27 -23 -38 -43 -18 -12 13 -13 19 -4 30 17 20 43
13 47 -12z m716 -124 c14 -5 30 -19 36 -30 11 -20 10 -21 -9 -11 -12 7 -105
11 -251 11 l-232 0 -29 -29 -29 -29 0 -552 c0 -582 1 -597 45 -614 29 -11 475
-7 496 4 25 14 24 -2 -2 -26 -19 -17 -41 -19 -253 -22 -127 -2 -246 0 -264 3
-23 4 -39 16 -52 38 -19 31 -20 55 -20 610 0 640 -1 627 63 646 43 12 469 14
501 1z m-186 -92 c-3 -9 -35 -14 -101 -16 -82 -2 -97 0 -97 13 0 12 17 15 101
15 76 0 100 -3 97 -12z m55 -3 c1 -5 -6 -11 -15 -13 -11 -2 -18 3 -18 13 0 17
30 18 33 0z m-141 -997 c-17 -17 -15 -73 3 -88 8 -7 26 -12 40 -12 13 0 22 -4
19 -9 -10 -16 -64 -9 -84 11 -26 26 -25 64 2 90 23 21 40 28 20 8z m-641 -184
c-23 -29 -27 -64 -11 -93 12 -23 64 -45 91 -38 16 4 18 3 9 -8 -19 -23 -66
-28 -99 -11 -60 31 -70 99 -22 147 37 36 60 38 32 3z m-1144 -116 c-2 -13 -4
-3 -4 22 0 25 2 35 4 23 2 -13 2 -33 0 -45z m491 -98 c-11 -18 -28 -27 -28
-16 0 6 30 36 36 36 2 0 -1 -9 -8 -20z m-28 -48 c0 -14 -2 -14 -9 -3 -7 11
-10 9 -16 -8 -8 -26 2 -42 14 -22 6 9 10 7 14 -10 3 -12 2 -30 -4 -38 -8 -12
-8 -10 -3 8 5 20 3 23 -10 18 -23 -9 -31 17 -16 53 13 31 30 32 30 2z m-503
-69 c-3 -10 -5 -4 -5 12 0 17 2 24 5 18 2 -7 2 -21 0 -30z m507 -52 c-5 -7
-24 11 -35 32 -11 20 -9 20 13 -3 13 -14 23 -27 22 -29z m34 16 c20 -21 20
-23 2 -23 -10 0 -16 4 -13 9 2 4 -1 14 -7 22 -20 24 -6 17 18 -8z m-541 -39
c-2 -13 -4 -5 -4 17 -1 22 1 32 4 23 2 -10 2 -28 0 -40z m80 10 c-3 -8 -6 -5
-6 6 -1 11 2 17 5 13 3 -3 4 -12 1 -19z m508 -8 c3 -5 1 -10 -4 -10 -6 0 -11
5 -11 10 0 6 2 10 4 10 3 0 8 -4 11 -10z m-35 -10 c8 -5 11 -10 5 -10 -5 0
-17 5 -25 10 -8 5 -10 10 -5 10 6 0 17 -5 25 -10z m80 0 c-20 -13 -33 -13 -25
0 3 6 14 10 23 10 15 0 15 -2 2 -10z m-508 -72 c-1 -5 3 -8 9 -8 5 0 7 -5 3
-11 -4 -8 -9 -7 -15 2 -4 7 -5 17 -3 21 3 4 1 8 -5 8 -5 0 -15 -8 -20 -17 -6
-10 -11 -13 -11 -7 0 5 5 15 11 21 8 8 8 17 0 31 -20 37 -12 38 11 2 12 -19
21 -38 20 -42z m-61 15 c13 -16 12 -17 -3 -4 -17 13 -22 21 -14 21 2 0 10 -8
17 -17z m-31 -8 c0 -12 -19 -12 -23 0 -4 9 -1 12 9 8 7 -3 14 -7 14 -8z m1100
-15 c-6 -11 -18 -20 -28 -20 -12 0 -14 -3 -4 -8 9 -6 5 -15 -15 -33 -15 -13
-22 -17 -15 -8 6 9 8 20 4 24 -4 5 -1 5 6 1 6 -4 12 -2 12 3 0 6 -5 11 -11 11
-7 0 3 11 22 24 42 30 42 30 29 6z m-1065 -29 c-9 -8 -36 -10 -30 -2 2 4 11 8
20 8 8 0 13 -3 10 -6z m158 -8 c-7 -2 -19 -2 -25 0 -7 3 -2 5 12 5 14 0 19 -2
13 -5z m835 2 c-7 -7 -810 -6 -817 0 -2 3 182 5 409 5 227 0 411 -2 408 -5z
m-958 -28 c13 4 13 3 1 -6 -14 -9 -51 2 -51 15 0 2 8 1 18 -4 9 -5 24 -7 32
-5z m523 6 c-13 -2 -33 -2 -45 0 -13 2 -3 4 22 4 25 0 35 -2 23 -4z m-467 -13
c5 -5 95 -11 204 -13 l195 -3 -208 -1 c-114 -1 -205 2 -202 7 3 5 -1 11 -7 13
-7 3 -8 6 -2 6 5 1 14 -3 20 -9z m829 -10 c-4 -6 -59 -9 -138 -8 l-132 2 135
6 c74 3 136 7 138 8 2 1 0 -2 -3 -8z m60 0 c-3 -5 -14 -10 -23 -9 -14 0 -13 2
3 9 27 11 27 11 20 0z m-1235 -655 l0 -325 -50 0 -50 0 0 325 0 325 50 0 50 0
0 -325z m236 158 l49 -166 3 166 2 167 50 0 50 0 0 -325 0 -325 -32 -1 c-18 0
-41 -2 -50 -4 -14 -3 -26 23 -63 143 -76 243 -70 240 -73 41 l-2 -177 -41 -4
c-22 -2 -42 -2 -45 1 -2 2 -4 150 -4 328 l0 323 53 0 54 0 49 -167z m390 0
l49 -166 3 166 2 167 50 0 50 0 0 -324 0 -324 -42 -5 c-24 -2 -48 1 -55 7 -6
6 -32 81 -58 166 -27 85 -52 159 -56 165 -5 5 -9 -66 -9 -161 0 -94 -2 -173
-4 -175 -3 -3 -23 -3 -45 -1 l-41 4 0 324 0 324 53 0 54 0 49 -167z m473 151
c45 -32 51 -67 51 -309 0 -308 -8 -326 -150 -326 -140 0 -150 21 -150 322 0
114 3 221 6 238 4 17 19 45 34 61 26 28 32 30 107 30 56 0 85 -5 102 -16z
m195 -36 c16 -119 63 -371 68 -363 3 6 20 101 39 213 l33 202 48 0 c32 0 48
-4 48 -13 0 -12 -93 -549 -106 -609 -5 -27 -8 -28 -64 -28 l-59 0 -10 53 c-21
102 -101 565 -101 581 0 13 10 16 49 16 l48 0 7 -52z m446 49 c0 -2 11 -64 24
-138 70 -385 88 -501 80 -508 -5 -4 -28 -6 -51 -4 l-41 5 -7 51 c-11 87 -11
87 -65 87 -55 0 -52 4 -68 -95 l-8 -50 -44 4 c-25 1 -47 5 -49 7 -3 3 27 182
85 503 13 74 24 136 24 138 0 1 27 3 60 3 33 0 60 -2 60 -3z m378 -54 l-3 -58
-52 -3 -53 -3 0 -263 c0 -144 -2 -265 -4 -267 -3 -3 -23 -3 -45 -1 l-41 4 0
264 0 263 -52 3 -53 3 -3 58 -3 57 156 0 156 0 -3 -57z m312 -3 l0 -60 -90 0
-90 0 0 -75 0 -75 85 0 86 0 -3 -57 -3 -58 -82 -3 -83 -3 0 -74 0 -75 90 0 90
0 0 -54 0 -55 -130 -3 c-72 -2 -135 -1 -140 0 -6 2 -10 124 -10 328 l0 324
140 0 140 0 0 -60z m-1867 -960 c31 -25 47 -75 47 -147 l0 -53 -40 0 c-22 0
-43 -1 -47 -2 -5 -2 -10 22 -13 52 -5 51 -7 55 -33 58 -36 4 -57 -13 -57 -49
0 -46 18 -71 88 -124 99 -76 107 -90 107 -193 -1 -93 -17 -142 -54 -162 -11
-5 -52 -10 -91 -10 -39 0 -80 5 -91 10 -33 18 -49 64 -49 140 l0 70 44 0 45 0
3 -52 3 -53 45 0 45 0 3 52 3 51 -82 62 c-95 73 -109 99 -109 200 0 130 33
170 141 170 52 0 72 -5 92 -20z m378 -2 c0 -13 1 -38 2 -56 l2 -32 -52 0 -53
0 0 -270 0 -270 -45 0 -45 0 -2 268 -3 267 -52 3 -53 3 0 55 0 54 150 0 c149
0 150 0 151 -22z m283 11 c50 -23 56 -56 56 -313 0 -319 -3 -326 -150 -326
-72 0 -84 3 -105 24 -13 13 -26 39 -30 57 -3 19 -5 141 -3 272 l3 239 33 29
c29 26 39 29 102 29 38 0 80 -5 94 -11z m375 -5 c38 -27 51 -74 51 -187 0 -91
-3 -110 -25 -153 l-25 -49 30 -114 c17 -63 30 -118 30 -122 0 -5 -22 -9 -48
-9 l-49 0 -21 78 c-11 42 -26 96 -32 120 -9 35 -15 42 -35 42 l-25 0 0 -120 0
-120 -45 0 -45 0 0 325 0 325 108 0 c83 0 113 -4 131 -16z m399 -41 l-3 -58
-87 -3 -88 -3 0 -74 0 -75 80 0 80 0 0 -61 0 -60 -77 2 -78 2 -3 -76 -3 -77
91 0 90 0 0 -55 0 -55 -140 0 -140 0 0 325 0 325 140 0 141 0 -3 -57z m2144
50 c-6 -2 -9 -10 -6 -15 4 -7 2 -8 -5 -4 -13 9 -5 26 12 25 9 0 8 -2 -1 -6z"/>
<path d="M3134 6118 c-5 -8 74 -3 83 6 3 3 -13 4 -37 3 -23 -1 -44 -5 -46 -9z"/>
<path d="M3258 6103 c7 -3 16 -2 19 1 4 3 -2 6 -13 5 -11 0 -14 -3 -6 -6z"/>
<path d="M3173 6093 c16 -3 25 -9 21 -15 -4 -7 -2 -8 5 -4 18 12 2 26 -27 25
l-27 -2 28 -4z"/>
<path d="M3090 6081 c0 -3 4 -12 9 -19 6 -11 9 -9 13 5 3 12 0 20 -8 20 -8 0
-14 -3 -14 -6z"/>
<path d="M3147 6062 c-10 -10 -17 -24 -17 -31 0 -8 -6 -11 -15 -7 -8 3 -15 1
-15 -4 0 -21 30 -9 43 18 7 15 19 26 26 24 7 -1 10 2 6 8 -8 13 -9 13 -28 -8z"/>
<path d="M3063 4920 c0 -25 2 -35 4 -22 2 12 2 32 0 45 -2 12 -4 2 -4 -23z"/>
<path d="M3063 4760 c0 -25 2 -35 4 -22 2 12 2 32 0 45 -2 12 -4 2 -4 -23z"/>
<path d="M3063 4675 c0 -22 2 -30 4 -17 2 12 2 30 0 40 -3 9 -5 -1 -4 -23z"/>
<path d="M3086 4643 c-6 -14 -5 -15 5 -6 7 7 10 15 7 18 -3 3 -9 -2 -12 -12z"/>
<path d="M3091 4470 c-1 -3 -3 -39 -6 -80 l-4 -75 10 60 c7 48 8 118 0 95z"/>
<path d="M3042 4285 c0 -16 2 -22 5 -12 2 9 2 23 0 30 -3 6 -5 -1 -5 -18z"/>
<path d="M3400 5975 c0 -7 30 -13 34 -7 3 4 -4 9 -15 9 -10 1 -19 0 -19 -2z"/>
<path d="M3701 5964 c0 -11 3 -14 6 -6 3 7 2 16 -1 19 -3 4 -6 -2 -5 -13z"/>
<path d="M3805 5969 c-5 -8 -4 -10 3 -5 7 4 12 3 12 -3 0 -5 -6 -12 -12 -14
-10 -4 -10 -6 -1 -6 17 -1 27 19 15 31 -6 6 -12 6 -17 -3z"/>
<path d="M3800 3060 l0 -210 50 0 50 0 0 210 0 210 -50 0 -50 0 0 -210z"/>
<path d="M4516 3099 c-4 -29 -10 -64 -13 -80 -5 -26 -4 -28 23 -23 16 3 30 6
31 7 5 6 -21 147 -27 147 -4 0 -10 -23 -14 -51z"/>
<path d="M3935 2268 c-3 -8 -4 -103 -3 -213 l3 -200 50 0 50 0 0 210 0 210
-48 3 c-32 2 -49 -1 -52 -10z"/>
<path d="M4304 2266 c-3 -8 -4 -47 -2 -88 l3 -73 50 0 50 0 3 65 c5 100 0 110
-54 110 -29 0 -46 -5 -50 -14z"/>
<path d="M5209 7129 c40 -16 75 -28 78 -25 5 4 -127 56 -142 55 -6 0 23 -13
64 -30z"/>
<path d="M6290 1449 c0 -5 5 -7 10 -4 6 3 10 8 10 11 0 2 -4 4 -10 4 -5 0 -10
-5 -10 -11z"/>
<path d="M6239 1404 c-21 -24 -22 -26 -3 -16 25 13 50 42 37 42 -5 0 -20 -12
-34 -26z"/>
</g>
</svg>
